<svg xmlns="http://www.w3.org/2000/svg" width="120" height="120" viewBox="0 0 120 120">
  <rect width="120" height="120" fill="#0a0a0f"/>
  <rect x="35" y="15" width="50" height="55" fill="#8b5cf6" rx="25"/>
  <rect x="35" y="50" width="50" height="30" fill="#8b5cf6"/>
  <rect x="35" y="75" width="10" height="15" fill="#8b5cf6" rx="0 0 5 5"/>
  <rect x="50" y="78" width="8" height="12" fill="#0a0a0f"/>
  <rect x="62" y="75" width="10" height="15" fill="#8b5cf6"/>
  <rect x="77" y="78" width="8" height="12" fill="#0a0a0f"/>
  <rect x="77" y="75" width="8" height="10" fill="#8b5cf6"/>
  <rect x="45" y="32" width="10" height="12" fill="#fff" rx="3"/>
  <rect x="65" y="32" width="10" height="12" fill="#fff" rx="3"/>
  <rect x="48" y="35" width="5" height="6" fill="#0a0a0f" rx="2"/>
  <rect x="68" y="35" width="5" height="6" fill="#0a0a0f" rx="2"/>
  <rect x="47" y="54" width="26" height="5" fill="#fff" rx="2"/>
  <rect x="50" y="54" width="4" height="5" fill="#8b5cf6"/>
  <rect x="58" y="54" width="4" height="5" fill="#8b5cf6"/>
  <rect x="66" y="54" width="4" height="5" fill="#8b5cf6"/>
  <rect x="25" y="38" width="12" height="8" fill="#8b5cf6" rx="4"/>
  <rect x="83" y="38" width="12" height="8" fill="#8b5cf6" rx="4"/>
</svg>